<svg xmlns="http://www.w3.org/2000/svg" xmlns:xlink="http://www.w3.org/1999/xlink" width="1366" height="726.502" viewBox="0 0 1366 726.502">
  <defs>
    <clipPath id="clip-path">
      <rect id="Rectangle_27613" data-name="Rectangle 27613" width="1366" height="726.502" transform="translate(-253.465 71)" fill="none"/>
    </clipPath>
  </defs>
  <g id="Group_38245" data-name="Group 38245" transform="translate(253.465 -71)">
    <g id="Group_38244" data-name="Group 38244" transform="translate(0 0)" clip-path="url(#clip-path)">
      <path id="Path_116915" data-name="Path 116915" d="M1156.819,525.862v133.7a522.625,522.625,0,0,1-6.723,83.5c-79.611,7.753-180.936,25.216-294.712,49.165-.454.079-.891.227-1.345.3-90.8,19.1-189.58,42.381-291.656,68.121q-4.361,1.126-8.731,2.244c-19.837,4.994-39.91,10.146-59.992,15.367-2.829.742-5.736,1.493-8.653,2.235C441.666,891.76,397.94,903.4,354.223,915.334c-2.908.742-5.815,1.563-8.661,2.314-86.168,23.5-172.493,47.978-256.365,72.521A522.984,522.984,0,0,1,3.7,840.5C69.717,782,134.869,719.258,196.04,653.669c2.087-2.235,4.112-4.4,6.121-6.635,31.642-34.174,62.227-69.09,91.171-104.608,2.017-2.384,3.955-4.776,5.815-7.09q20.614-25.408,40.076-51.182c1.947-2.532,3.8-4.994,5.675-7.456,10-13.437,19.767-26.866,29.249-40.443,2.314-3.2,4.628-6.5,6.854-9.77,13.577-19.628,26.639-39.325,39.02-59.171,2.025-3.2,4.025-6.487,6.051-9.77,26.106-42.46,49.322-85.286,68.872-128.183,1.484-3.283,2.907-6.5,4.322-9.779C531.937,145.942,553.887,72.224,561.719,0h69.23c289.194,0,525.87,236.667,525.87,525.862" transform="translate(-305.829 -144)" fill="#fff"/>
    </g>
  </g>
</svg>
