<svg id="_25418" data-name="25418" xmlns="http://www.w3.org/2000/svg" width="110" height="93.076" viewBox="0 0 110 93.076">
  <g id="Group_286" data-name="Group 286">
    <path id="Path_153" data-name="Path 153" d="M38.078,36.547H12.693a12.243,12.243,0,0,0-8.991,3.7A12.242,12.242,0,0,0,0,49.24V74.624a12.237,12.237,0,0,0,3.7,8.99,12.245,12.245,0,0,0,8.991,3.7H27.5a6.32,6.32,0,0,1,6.346,6.347v2.114a16.306,16.306,0,0,1-4.958,11.965A16.307,16.307,0,0,1,16.923,112.7h-4.23a4.07,4.07,0,0,0-2.976,1.257,4.066,4.066,0,0,0-1.256,2.975v8.463a4.069,4.069,0,0,0,1.256,2.975,4.071,4.071,0,0,0,2.976,1.257h4.23a32.982,32.982,0,0,0,13.123-2.678,34.1,34.1,0,0,0,10.808-7.239A34.11,34.11,0,0,0,48.092,108.9a32.973,32.973,0,0,0,2.677-13.122V49.239A12.638,12.638,0,0,0,38.078,36.547Z" transform="translate(0 -36.547)" fill="#f1f1f1"/>
    <path id="Path_154" data-name="Path 154" d="M302.883,40.249a12.239,12.239,0,0,0-8.99-3.7H268.508A12.637,12.637,0,0,0,255.817,49.24V74.624a12.638,12.638,0,0,0,12.691,12.692h14.808a6.32,6.32,0,0,1,6.347,6.347v2.114A16.927,16.927,0,0,1,272.739,112.7h-4.231a4.292,4.292,0,0,0-4.231,4.231v8.463a4.292,4.292,0,0,0,4.231,4.231h4.231a32.984,32.984,0,0,0,13.122-2.678A33.529,33.529,0,0,0,303.908,108.9a32.974,32.974,0,0,0,2.677-13.122V49.239A12.236,12.236,0,0,0,302.883,40.249Z" transform="translate(-196.585 -36.547)" fill="#f1f1f1"/>
  </g>
</svg>
