<svg xmlns="http://www.w3.org/2000/svg" width="73" height="73" viewBox="0 0 73 73">
  <g id="Group_38990" data-name="Group 38990" transform="translate(-1166 -4823)">
    <circle id="Ellipse_9371" data-name="Ellipse 9371" cx="36.5" cy="36.5" r="36.5" transform="translate(1166 4823)" fill="#43b4f5"/>
    <g id="Book-open" transform="translate(1176.396 4836.879)">
      <path id="Path_137112" data-name="Path 137112" d="M25.184,39.974a1.8,1.8,0,0,0,1.839,0L29.648,38.4a19.209,19.209,0,0,1,17.017-1.364,3.13,3.13,0,0,0,4.293-2.906V7.175A3.268,3.268,0,0,0,48.9,4.141,24.741,24.741,0,0,0,26.986,5.9l-.882.529L25.222,5.9A24.741,24.741,0,0,0,3.3,4.141,3.268,3.268,0,0,0,1.25,7.175V34.13a3.13,3.13,0,0,0,4.293,2.906A19.209,19.209,0,0,1,22.559,38.4ZM4.718,7.311V33.637a22.678,22.678,0,0,1,19.626,1.789l.026.016V9.43l-.932-.559A21.272,21.272,0,0,0,4.718,7.311ZM27.863,35.426l-.026.016V9.43l.932-.559a21.273,21.273,0,0,1,18.719-1.56V33.637A22.678,22.678,0,0,0,27.863,35.426Z" transform="translate(0 0)" fill="#fff" fill-rule="evenodd"/>
      <path id="Path_137113" data-name="Path 137113" d="M18.492,20.2a15.028,15.028,0,0,0-15.144,0l-.238.138a1.734,1.734,0,0,0,1.747,3L5.1,23.2a11.56,11.56,0,0,1,11.649,0l2.514,1.466a10.982,10.982,0,0,0,11.067,0L32.839,23.2a11.561,11.561,0,0,1,11.649,0l.237.139a1.734,1.734,0,0,0,1.747-3l-.237-.138a15.028,15.028,0,0,0-15.144,0L28.578,21.67a7.514,7.514,0,0,1-7.572,0Z" transform="translate(1.312 20.71)" fill="#fff"/>
    </g>
  </g>
</svg>
