<svg xmlns="http://www.w3.org/2000/svg" xmlns:xlink="http://www.w3.org/1999/xlink" width="110.164" height="124.379" viewBox="0 0 110.164 124.379">
  <defs>
    <linearGradient id="linear-gradient" x1="0.5" x2="0.5" y2="1" gradientUnits="objectBoundingBox">
      <stop offset="0" stop-color="#eaeeee"/>
      <stop offset="1" stop-color="#f9f9f9"/>
    </linearGradient>
  </defs>
  <g id="Download" transform="translate(-4.25 -3.25)">
    <path id="Path_137124" data-name="Path 137124" d="M38.259,3.25a10.606,10.606,0,0,0-10.565,9.679,263.811,263.811,0,0,0-.761,34.435q-.9.06-1.8.126l-10.586.772a8.956,8.956,0,0,0-6.9,13.755A114.105,114.105,0,0,0,37.234,93.252L41.475,96.3a9.862,9.862,0,0,0,11.509,0l4.242-3.046A114.1,114.1,0,0,0,86.806,62.017a8.956,8.956,0,0,0-6.9-13.755l-10.586-.772q-.9-.066-1.8-.126a263.811,263.811,0,0,0-.761-34.436A10.606,10.606,0,0,0,56.2,3.25Zm-.4,48.79a253.19,253.19,0,0,1,.451-38.129H56.149A253.1,253.1,0,0,1,56.6,52.04,5.329,5.329,0,0,0,61.658,57.7q3.447.171,6.891.421l7.689.56A103.449,103.449,0,0,1,51,84.593L47.23,87.305l-3.776-2.712A103.438,103.438,0,0,1,18.222,58.684l7.688-.56q3.443-.252,6.891-.421a5.329,5.329,0,0,0,5.058-5.662Z" transform="translate(12.103)" fill-rule="evenodd" fill="url(#linear-gradient)"/>
    <path id="Path_137125" data-name="Path 137125" d="M14.911,21.581a5.331,5.331,0,0,0-10.661,0V35.8A12.438,12.438,0,0,0,16.688,48.233h85.288A12.438,12.438,0,0,0,114.414,35.8V21.581a5.331,5.331,0,0,0-10.661,0V35.8a1.777,1.777,0,0,1-1.777,1.777H16.688A1.777,1.777,0,0,1,14.911,35.8Z" transform="translate(0 79.396)" fill="url(#linear-gradient)"/>
  </g>
</svg>
