<svg xmlns="http://www.w3.org/2000/svg" width="73" height="73" viewBox="0 0 73 73">
  <g id="Group_38988" data-name="Group 38988" transform="translate(-1166 -4424)">
    <circle id="Ellipse_9369" data-name="Ellipse 9369" cx="36.5" cy="36.5" r="36.5" transform="translate(1166 4424)" fill="#a164de"/>
    <path id="University" d="M29.148,3.39a3.657,3.657,0,0,1,2,0c1.394.4,2.8.762,4.211,1.13C41.986,6.248,48.715,8,54.7,12.879l2.757,2.245a4.629,4.629,0,0,1,1.678,3.607V37.578a2.019,2.019,0,0,1-4.039,0V24.269l-.439.358A32.164,32.164,0,0,1,48.2,28.7a2.01,2.01,0,0,1,.165.8V41.062a7.4,7.4,0,0,1-4.715,6.9l-10.77,4.2a7.405,7.405,0,0,1-5.379,0l-10.77-4.2a7.4,7.4,0,0,1-4.715-6.9V29.5a2.012,2.012,0,0,1,.173-.818,32.423,32.423,0,0,1-6.507-4.1L2.928,22.339a4.72,4.72,0,0,1,0-7.216l2.8-2.287c5.943-4.85,12.625-6.594,19.2-8.312C26.342,4.155,27.752,3.787,29.148,3.39ZM55.1,18.733a.608.608,0,0,0-.19-.478L52.151,16.01c-5.8-4.01-10.975-5.778-17.543-7.5-1.444-.379-2.929-.77-4.458-1.2-1.536.436-3.027.828-4.476,1.209-6.515,1.714-12.192,3.208-17.394,7.452l-2.8,2.287a.7.7,0,0,0,0,.956l2.757,2.245c5.246,4.273,10.975,5.778,17.543,7.5,1.444.38,2.929.77,4.458,1.2,1.536-.436,3.026-.828,4.475-1.209C41.227,27.236,46.9,25.742,52.106,21.5l2.8-2.287A.609.609,0,0,0,55.1,18.733ZM35.458,32.938c2.961-.773,5.943-1.552,8.87-2.617V41.062A3.365,3.365,0,0,1,42.185,44.2l-10.77,4.2a3.366,3.366,0,0,1-2.445,0L18.2,44.2a3.365,3.365,0,0,1-2.143-3.136V30.3c2.958,1.077,5.974,1.864,8.968,2.645,1.411.368,2.817.735,4.211,1.13a3.656,3.656,0,0,0,2,0C32.635,33.675,34.044,33.307,35.458,32.938Z" transform="translate(1172.307 4432.543)" fill="#fff" fill-rule="evenodd"/>
  </g>
</svg>
