<svg xmlns="http://www.w3.org/2000/svg" width="73" height="73" viewBox="0 0 73 73">
  <g id="Group_38989" data-name="Group 38989" transform="translate(-1166 -4624)">
    <circle id="Ellipse_9370" data-name="Ellipse 9370" cx="36.5" cy="36.5" r="36.5" transform="translate(1166 4624)" fill="#7de67a"/>
    <g id="Invoice" transform="translate(1178.221 4634.154)">
      <path id="Path_137118" data-name="Path 137118" d="M24.665,10.867A1.867,1.867,0,0,0,22.8,9H7.866a1.866,1.866,0,1,0,0,3.733H22.8A1.867,1.867,0,0,0,24.665,10.867Z" transform="translate(5.582 9.019)" fill="#fff"/>
      <path id="Path_137119" data-name="Path 137119" d="M22.176,13.866A1.867,1.867,0,0,0,20.31,12H7.866a1.866,1.866,0,1,0,0,3.733H20.31A1.867,1.867,0,0,0,22.176,13.866Z" transform="translate(5.582 13.485)" fill="#fff"/>
      <path id="Path_137120" data-name="Path 137120" d="M22.8,15a1.866,1.866,0,0,1,0,3.733H7.866a1.866,1.866,0,1,1,0-3.733Z" transform="translate(5.582 17.951)" fill="#fff"/>
      <path id="Path_137121" data-name="Path 137121" d="M11.582,49.75H43.935a6.844,6.844,0,0,0,6.844-6.844V29.218a1.867,1.867,0,0,0-1.866-1.866H40.824V7.923A4.355,4.355,0,0,0,33.938,4.38l-.436.311a5.624,5.624,0,0,1-6.525-.011,9.381,9.381,0,0,0-10.88,0,5.624,5.624,0,0,1-6.525.011L9.137,4.38A4.355,4.355,0,0,0,2.25,7.923V40.417A9.332,9.332,0,0,0,11.582,49.75ZM18.267,7.717a5.649,5.649,0,0,1,6.541,0,9.357,9.357,0,0,0,10.864.011l.436-.311a.622.622,0,0,1,.984.506V42.906a6.812,6.812,0,0,0,.746,3.111H11.582a5.6,5.6,0,0,1-5.6-5.6V7.923a.622.622,0,0,1,.984-.506l.436.311A9.357,9.357,0,0,0,18.267,7.717ZM40.824,42.906V31.085h6.222V42.906a3.111,3.111,0,1,1-6.222,0Z" transform="translate(0 0)" fill="#fff" fill-rule="evenodd"/>
    </g>
  </g>
</svg>
