<svg xmlns="http://www.w3.org/2000/svg" width="21.017" height="16.814" viewBox="0 0 21.017 16.814">
  <path id="icons8-folder" d="M6.364,8A2.376,2.376,0,0,0,4,10.364V22.449a2.376,2.376,0,0,0,2.364,2.364H22.652a2.376,2.376,0,0,0,2.364-2.364V12.992a2.376,2.376,0,0,0-2.364-2.364H14.531L12.182,8.67A2.889,2.889,0,0,0,10.333,8Zm0,1.576h3.968a1.311,1.311,0,0,1,.84.3l1.841,1.534-1.841,1.534a1.311,1.311,0,0,1-.84.3H5.576v-2.89A.776.776,0,0,1,6.364,9.576ZM14.531,12.2h8.121a.776.776,0,0,1,.788.788v9.458a.776.776,0,0,1-.788.788H6.364a.776.776,0,0,1-.788-.788V14.83h4.756a2.889,2.889,0,0,0,1.849-.67Z" transform="translate(-4 -8)" fill="#15192a"/>
</svg>
