<svg xmlns="http://www.w3.org/2000/svg" width="22.062" height="16.814" viewBox="0 0 22.062 16.814">
  <path id="icons8-opened-folder" d="M6.364,8A2.376,2.376,0,0,0,4,10.364V22.925h.008A1.865,1.865,0,0,0,5.84,24.814H21.1a2.369,2.369,0,0,0,2.214-1.533l2.631-7v0a1.86,1.86,0,0,0-1.718-2.494h-.262v-.788A2.376,2.376,0,0,0,21.6,10.627H14.531L12.183,8.67h0A2.889,2.889,0,0,0,10.333,8Zm0,1.576h3.968a1.311,1.311,0,0,1,.84.3l2.568,2.14a.788.788,0,0,0,.5.183H21.6a.776.776,0,0,1,.788.788v.788H8.967a2.369,2.369,0,0,0-2.214,1.533L5.576,18.447V10.364A.776.776,0,0,1,6.364,9.576Zm2.6,5.78H24.228a.245.245,0,0,1,.245.356l0,.005-2.632,7.009a.783.783,0,0,1-.738.511H5.84a.245.245,0,0,1-.246-.354h0l2.634-7.015A.783.783,0,0,1,8.967,15.356Z" transform="translate(-4 -8)" fill="#fff"/>
</svg>
