<svg xmlns="http://www.w3.org/2000/svg" xmlns:xlink="http://www.w3.org/1999/xlink" width="38.022" height="38" viewBox="0 0 38.022 38">
  <defs>
    <linearGradient id="linear-gradient" x1="0.5" x2="0.5" y2="1" gradientUnits="objectBoundingBox">
      <stop offset="0" stop-color="#474b5b"/>
      <stop offset="1" stop-color="#a2a5b1"/>
    </linearGradient>
  </defs>
  <path id="Phone" d="M8.482,17.82a37.374,37.374,0,0,0,19.367,18.8l.027.012,1.658.739a4.884,4.884,0,0,0,5.947-1.6l2.766-3.829a.543.543,0,0,0-.1-.74l-4.829-3.9a.543.543,0,0,0-.777.1l-1.879,2.536a1.628,1.628,0,0,1-1.979.514A29.062,29.062,0,0,1,14.2,15.979,1.628,1.628,0,0,1,14.717,14l2.536-1.88a.543.543,0,0,0,.1-.777l-3.9-4.83a.543.543,0,0,0-.74-.1L8.867,9.193a4.884,4.884,0,0,0-1.587,5.982l1.2,2.642Zm18.082,21.8A40.629,40.629,0,0,1,5.521,19.175l0-.005-1.2-2.648A8.14,8.14,0,0,1,6.961,6.553L10.81,3.774a3.8,3.8,0,0,1,5.18.695l3.9,4.83a3.8,3.8,0,0,1-.695,5.437l-1.453,1.077A25.815,25.815,0,0,0,28.848,26.923l1.077-1.453a3.8,3.8,0,0,1,5.437-.695l4.829,3.9a3.8,3.8,0,0,1,.694,5.182L38.12,37.681a8.14,8.14,0,0,1-9.911,2.668Z" transform="translate(-3.584 -3.055)" fill-rule="evenodd" fill="url(#linear-gradient)"/>
</svg>
