<svg xmlns="http://www.w3.org/2000/svg" width="14.403" height="14.566" viewBox="0 0 14.403 14.566">
  <path id="Play" d="M19.266,10.484a1.917,1.917,0,0,1,0,3.032A35.76,35.76,0,0,1,9.35,18.932l-.652.232a2.072,2.072,0,0,1-2.736-1.69,42.489,42.489,0,0,1,0-10.948A2.072,2.072,0,0,1,8.7,4.836l.652.232A35.762,35.762,0,0,1,19.266,10.484Zm-.918,1.846a.417.417,0,0,0,0-.66,34.263,34.263,0,0,0-9.5-5.189L8.2,6.25a.572.572,0,0,0-.746.471,40.989,40.989,0,0,0,0,10.558.572.572,0,0,0,.746.471l.652-.232A34.263,34.263,0,0,0,18.348,12.33Z" transform="translate(-5.607 -4.717)" fill="#15192a" fill-rule="evenodd"/>
</svg>
