<svg xmlns="http://www.w3.org/2000/svg" width="73" height="73" viewBox="0 0 73 73">
  <g id="Group_38986" data-name="Group 38986" transform="translate(-1166 -4022)">
    <circle id="Ellipse_9367" data-name="Ellipse 9367" cx="36.5" cy="36.5" r="36.5" transform="translate(1166 4022)" fill="#f2d8a5"/>
    <path id="Pin" d="M39.323,4.579A4.664,4.664,0,0,0,31.738,6.04l-4.244,9.9a12.646,12.646,0,0,0-11.4,3.47L11.538,23.97a2,2,0,0,0,0,2.827l6.65,6.65L3.835,47.8a2,2,0,0,0,2.827,2.827L21.015,36.274l6.65,6.65a2,2,0,0,0,2.827,0l4.557-4.557a12.646,12.646,0,0,0,3.47-11.4l9.9-4.244a4.664,4.664,0,0,0,1.46-7.584Zm-3.91,3.035A.666.666,0,0,1,36.5,7.406l10.56,10.56a.666.666,0,0,1-.209,1.083l-11.5,4.929a2,2,0,0,0-1.094,2.511,8.663,8.663,0,0,1-2.03,9.051l-3.144,3.144-13.3-13.3,3.144-3.144a8.662,8.662,0,0,1,9.051-2.03,2,2,0,0,0,2.511-1.094Z" transform="translate(1175.25 4031.289)" fill="#474b5b" fill-rule="evenodd"/>
  </g>
</svg>
