<svg xmlns="http://www.w3.org/2000/svg" width="73" height="73" viewBox="0 0 73 73">
  <g id="Group_38987" data-name="Group 38987" transform="translate(-1166 -4225)">
    <circle id="Ellipse_9368" data-name="Ellipse 9368" cx="36.5" cy="36.5" r="36.5" transform="translate(1166 4225)" fill="#f2d8a5"/>
    <path id="Lightbulb-alt" d="M25.637,6.389c-9.592,0-17.247,7.5-17.247,16.6A16.037,16.037,0,0,0,14.7,36.265a5.016,5.016,0,0,1,1.944,2.871c.24,1.017.514,2.256.785,3.569h6.142V39.717a2.071,2.071,0,0,1,.324-1.112L26.1,35.13l-4.965-3.9a2.07,2.07,0,0,1-.467-2.739l3.219-5.057a2.07,2.07,0,0,1,3.492,2.223L25.17,29.134l4.965,3.9a2.07,2.07,0,0,1,.467,2.739l-2.9,4.548V42.7h6.141c.272-1.313.546-2.552.785-3.569a5.016,5.016,0,0,1,1.945-2.871,16.037,16.037,0,0,0,6.306-13.274C42.884,13.888,35.229,6.389,25.637,6.389Zm7.42,40.454H18.217a46.116,46.116,0,0,1,.616,4.622,2.983,2.983,0,0,0,2.405,2.688l.541.117a18.287,18.287,0,0,0,7.715,0l.541-.117a2.983,2.983,0,0,0,2.406-2.688A46.1,46.1,0,0,1,33.056,46.843ZM4.25,22.991C4.25,11.47,13.892,2.25,25.637,2.25s21.387,9.22,21.387,20.741A20.169,20.169,0,0,1,39.029,39.6a.893.893,0,0,0-.367.485c-.327,1.387-.725,3.223-1.088,5.085a60.093,60.093,0,0,0-1,6.546A7.12,7.12,0,0,1,30.909,58.2l-.541.117a22.418,22.418,0,0,1-9.463,0l-.541-.117A7.121,7.121,0,0,1,14.7,51.715a60.091,60.091,0,0,0-1-6.546c-.363-1.862-.761-3.7-1.087-5.085a.9.9,0,0,0-.367-.485A20.169,20.169,0,0,1,4.25,22.991Z" transform="translate(1176.864 4231.965)" fill="#474b5b" fill-rule="evenodd"/>
  </g>
</svg>
