<svg xmlns="http://www.w3.org/2000/svg" width="21.91" height="15.822" viewBox="0 0 21.91 15.822">
  <defs>
    <style>
      .cls-1 {
        fill: #474b5b;
        fill-rule: evenodd;
      }
    </style>
  </defs>
  <path id="Reply" class="cls-1" d="M24.756,19.51a.931.931,0,0,0,.16-1.067l-.907-1.791a12.108,12.108,0,0,0-10.8-6.638h-.5q-.047-1.031-.122-2.06L12.5,6.788a1.247,1.247,0,0,0-1.915-.96A24.588,24.588,0,0,0,3.853,12.2l-.571.8a.931.931,0,0,0,0,1.087l.571.8a24.588,24.588,0,0,0,6.731,6.374,1.247,1.247,0,0,0,1.915-.96l.085-1.166q.089-1.228.14-2.459a17.549,17.549,0,0,1,7.868,1.608l3.1,1.432A.931.931,0,0,0,24.756,19.51Zm-2.745-2.63-.638-.295a19.411,19.411,0,0,0-9.621-1.73.931.931,0,0,0-.86.9q-.048,1.619-.166,3.236l-.008.108a22.726,22.726,0,0,1-5.352-5.308l-.181-.252.181-.252a22.726,22.726,0,0,1,5.352-5.308l.008.108q.105,1.443.155,2.888a.931.931,0,0,0,.931.9h1.4A10.246,10.246,0,0,1,22.011,16.88Z" transform="translate(-3.107 -5.63)"/>
</svg>
