<svg id="_37663" data-name="37663" xmlns="http://www.w3.org/2000/svg" width="16.352" height="16.352" viewBox="0 0 16.352 16.352">
  <defs>
    <style>
      .cls-1 {
        fill: #a1a3a8;
      }
    </style>
  </defs>
  <g id="Group_23477" data-name="Group 23477" transform="translate(0 0)">
    <path id="Path_91171" data-name="Path 91171" class="cls-1" d="M8.176,0a8.176,8.176,0,1,0,8.176,8.176A8.185,8.185,0,0,0,8.176,0Zm0,14.565a6.389,6.389,0,1,1,6.389-6.389A6.4,6.4,0,0,1,8.176,14.565Z" transform="translate(0 0)"/>
    <path id="Path_91172" data-name="Path 91172" class="cls-1" d="M258.174,143.374v-3.427a.693.693,0,1,0-1.385,0V143.6c0,.011,0,.021,0,.032a.688.688,0,0,0,.2.523l2.58,2.579a.693.693,0,0,0,.979-.98Z" transform="translate(-249.291 -135.189)"/>
  </g>
</svg>
